<?xml version="1.0" encoding="iso-8859-1"?>
<!-- Generator: Adobe Illustrator 18.1.1, SVG Export Plug-In . SVG Version: 6.00 Build 0)  -->
<svg version="1.1" id="Capa_1" xmlns="http://www.w3.org/2000/svg" xmlns:xlink="http://www.w3.org/1999/xlink" x="0px" y="0px"
	 viewBox="0 0 28.379 28.379" style="enable-background:new 0 0 28.379 28.379;" xml:space="preserve">
<g>
	<g id="c54_coins">
		<path style="fill:#030104;" d="M14.19,15.711c-6.318,0-11.59-2.301-12.839-5.363c-0.187,0.451-0.286,0.918-0.286,1.396
			c0,3.735,5.875,6.764,13.125,6.764c7.247,0,13.124-3.028,13.124-6.764c0-0.479-0.104-0.945-0.285-1.396
			C25.776,13.41,20.504,15.711,14.19,15.711z"/>
		<path style="fill:#030104;" d="M14.19,20.569c-6.318,0-11.59-2.302-12.839-5.362c-0.187,0.451-0.286,0.918-0.286,1.398
			c0,3.733,5.875,6.762,13.125,6.762c7.247,0,13.124-3.028,13.124-6.762c0-0.48-0.104-0.947-0.285-1.398
			C25.776,18.268,20.504,20.569,14.19,20.569z"/>
		<path style="fill:#030104;" d="M14.19,25.582c-6.318,0-11.59-2.299-12.839-5.363c-0.187,0.451-0.286,0.919-0.286,1.398
			c0,3.735,5.875,6.762,13.125,6.762c7.247,0,13.124-3.026,13.124-6.762c0-0.479-0.104-0.947-0.285-1.398
			C25.776,23.283,20.504,25.582,14.19,25.582z"/>
		<ellipse style="fill:#030104;" cx="14.19" cy="6.762" rx="13.124" ry="6.762"/>
	</g>
</g>
<g>
</g>
<g>
</g>
<g>
</g>
<g>
</g>
<g>
</g>
<g>
</g>
<g>
</g>
<g>
</g>
<g>
</g>
<g>
</g>
<g>
</g>
<g>
</g>
<g>
</g>
<g>
</g>
<g>
</g>
</svg>
