<?xml version="1.0" standalone="no"?><svg xmlns="http://www.w3.org/2000/svg" viewBox="0 0 1440 320"><path fill="#0099ff" fill-opacity="1" d="M0,96L15,96C30,96,60,96,90,112C120,128,150,160,180,154.7C210,149,240,107,270,90.7C300,75,330,85,360,85.3C390,85,420,75,450,64C480,53,510,43,540,53.3C570,64,600,96,630,133.3C660,171,690,213,720,208C750,203,780,149,810,149.3C840,149,870,203,900,224C930,245,960,235,990,208C1020,181,1050,139,1080,133.3C1110,128,1140,160,1170,186.7C1200,213,1230,235,1260,218.7C1290,203,1320,149,1350,138.7C1380,128,1410,160,1425,176L1440,192L1440,0L1425,0C1410,0,1380,0,1350,0C1320,0,1290,0,1260,0C1230,0,1200,0,1170,0C1140,0,1110,0,1080,0C1050,0,1020,0,990,0C960,0,930,0,900,0C870,0,840,0,810,0C780,0,750,0,720,0C690,0,660,0,630,0C600,0,570,0,540,0C510,0,480,0,450,0C420,0,390,0,360,0C330,0,300,0,270,0C240,0,210,0,180,0C150,0,120,0,90,0C60,0,30,0,15,0L0,0Z"></path></svg>